<svg width="10" height="10" viewBox="0 0 10 10" fill="none" xmlns="http://www.w3.org/2000/svg">
<path d="M9.04051 0.23506C9.12997 0.105394 9.25906 0.0223767 9.39993 0.00390461C9.54081 -0.0145675 9.6822 0.0329844 9.79363 0.13631C9.90506 0.239636 9.9776 0.390461 9.99562 0.556275C10.0136 0.722089 9.97568 0.889614 9.88995 1.02274L4.14975 9.63494C4.07543 9.74641 3.98102 9.83699 3.87335 9.9001C3.76568 9.96321 3.64746 9.99728 3.52724 9.99984C3.40703 10.0024 3.28784 9.97339 3.17831 9.91491C3.06878 9.85643 2.97165 9.76994 2.89396 9.66171L0.135988 5.81764C0.088234 5.7541 0.051727 5.67995 0.0286114 5.59954C0.00549576 5.51912 -0.00376241 5.43408 0.00138066 5.34939C0.00652372 5.2647 0.0259643 5.18208 0.0585606 5.10637C0.0911568 5.03067 0.136252 4.96341 0.191196 4.90855C0.246141 4.85368 0.309827 4.81232 0.378515 4.78689C0.447202 4.76146 0.519506 4.75247 0.59118 4.76046C0.662853 4.76845 0.732451 4.79324 0.795885 4.83339C0.859319 4.87355 0.915311 4.92824 0.960571 4.99427L3.50457 8.5401L9.04051 0.23506Z" fill="#10B981"/>
</svg>
